HIERARCHY
ROOT joint_Root
{
	OFFSET 0.0 0.0 0.0
	CHANNELS 6 Xposition Yposition Zposition Zrotation Xrotation Yrotation 
	JOINT Hips
	{
		OFFSET -0.726466 93.3139 -2.00062
		CHANNELS 6 Xposition Yposition Zposition Zrotation Xrotation Yrotation 
		JOINT Spine
		{
			OFFSET 15.7357 0.0 0.0
			CHANNELS 6 Xposition Yposition Zposition Zrotation Xrotation Yrotation 
			JOINT Chest
			{
				OFFSET 8.98455 -0.406207 0.0
				CHANNELS 6 Xposition Yposition Zposition Zrotation Xrotation Yrotation 
				JOINT Neck
				{
					OFFSET 16.3773 0.0 0.0
					CHANNELS 6 Xposition Yposition Zposition Zrotation Xrotation Yrotation 
					JOINT Head
					{
						OFFSET 6.45672 0.0 0.0
						CHANNELS 6 Xposition Yposition Zposition Zrotation Xrotation Yrotation 
						End Site
						{
							OFFSET 0.0 0.0 0.0
						}
					}
				}
				JOINT Shoulder_L
				{
					OFFSET 12.9942 -0.242716 4.98039
					CHANNELS 6 Xposition Yposition Zposition Zrotation Xrotation Yrotation 
					JOINT UpperArm_L
					{
						OFFSET 5.34809 0.0 0.0
						CHANNELS 6 Xposition Yposition Zposition Zrotation Xrotation Yrotation 
						JOINT LowerArm_L
						{
							OFFSET 24.3286 1.87007e-05 0.0
							CHANNELS 6 Xposition Yposition Zposition Zrotation Xrotation Yrotation 
							JOINT Hand_L
							{
								OFFSET 22.2916 0.0 0.0
								CHANNELS 6 Xposition Yposition Zposition Zrotation Xrotation Yrotation 
								End Site
								{
									OFFSET 0.0 0.0 0.0
								}
							}
						}
					}
				}
				JOINT Shoulder_R
				{
					OFFSET 12.9945 -0.242716 -4.98039
					CHANNELS 6 Xposition Yposition Zposition Zrotation Xrotation Yrotation 
					JOINT UpperArm_R
					{
						OFFSET -5.34813 0.0 0.0
						CHANNELS 6 Xposition Yposition Zposition Zrotation Xrotation Yrotation 
						JOINT LowerArm_R
						{
							OFFSET -24.3289 0.000322201 0.0
							CHANNELS 6 Xposition Yposition Zposition Zrotation Xrotation Yrotation 
							JOINT Hand_R
							{
								OFFSET -22.2915 -0.000108084 0.0
								CHANNELS 6 Xposition Yposition Zposition Zrotation Xrotation Yrotation 
								End Site
								{
									OFFSET 0.0 0.0 0.0
								}
							}
						}
					}
				}
			}
		}
		JOINT UpperLeg_L
		{
			OFFSET -2.19248 -6.46944 0.0
			CHANNELS 6 Xposition Yposition Zposition Zrotation Xrotation Yrotation 
			JOINT LowerLeg_L
			{
				OFFSET 39.0811 0.0 -1.23785e-05
				CHANNELS 6 Xposition Yposition Zposition Zrotation Xrotation Yrotation 
				JOINT Foot_L
				{
					OFFSET 40.9854 0.0 -1.26872e-05
					CHANNELS 6 Xposition Yposition Zposition Zrotation Xrotation Yrotation 
					JOINT Toes_L
					{
						OFFSET 11.7543 0.0 0.0
						CHANNELS 6 Xposition Yposition Zposition Zrotation Xrotation Yrotation 
						End Site
						{
							OFFSET 0.0 0.0 0.0
						}
					}
				}
			}
		}
		JOINT UpperLeg_R
		{
			OFFSET -2.19251 6.46944 0.0
			CHANNELS 6 Xposition Yposition Zposition Zrotation Xrotation Yrotation 
			JOINT LowerLeg_R
			{
				OFFSET -39.0811 -0.00228153 -0.0401928
				CHANNELS 6 Xposition Yposition Zposition Zrotation Xrotation Yrotation 
				JOINT Foot_R
				{
					OFFSET -40.9854 0.0 0.0
					CHANNELS 6 Xposition Yposition Zposition Zrotation Xrotation Yrotation 
					JOINT Toes_R
					{
						OFFSET -11.7543 0.0 0.0
						CHANNELS 6 Xposition Yposition Zposition Zrotation Xrotation Yrotation 
						End Site
						{
							OFFSET 0.0 0.0 0.0
						}
					}
				}
			}
		}
	}
}
MOTION
Frames:	4
Frame Time:	0.0333333
0.000000 0.000000 0.000000 0.000000 0.000000 -0.000000 -1.327930 92.274200 -0.285066 87.776500 -0.453020 3.808800 15.735700 0.000005 -0.000001 77.635700 86.892700 -76.967000 8.984550 -0.406207 -0.000000 -1.687290 -1.385550 1.316690 16.377300 -0.000001 -0.000001 0.113096 -1.133540 0.928800 6.456720 -0.000001 -0.000000 -3.149260 -0.814663 -0.224322 12.994200 -0.242716 4.980390 -83.247200 -12.907800 -62.073700 5.348090 -0.000007 -0.000001 -55.956400 -61.832400 -80.631200 24.328600 0.000019 0.000005 -1.117840 -0.442945 -68.382300 22.291600 -0.000001 0.000005 18.866700 5.649620 -14.978600 12.994500 -0.242716 -4.980390 93.803300 -7.764060 -63.798700 -5.348130 -0.000001 -0.000004 -49.251500 -61.040900 -92.978400 -24.328900 0.000322 -0.000009 0.558211 0.411028 -53.697700 -22.291500 -0.000108 -0.000004 22.691000 5.617730 -12.463000 -2.192480 -6.469440 -0.000000 -169.637000 -18.901500 -2.171350 39.081100 -0.000007 -0.000012 -0.127618 0.324786 21.451400 40.985400 -0.000006 -0.000013 -5.682510 -0.098131 -63.354600 11.754300 -0.000000 0.000003 -0.000135 -0.001330 -16.628200 -2.192510 6.469440 -0.000001 174.876000 23.807200 -179.837000 -39.081100 -0.002282 -0.040193 0.025059 -0.060941 19.630900 -40.985400 0.000008 0.000006 -0.391056 3.119290 -63.395100 -11.754300 -0.000006 -0.000006 -0.004000 -0.051435 -18.665400
0.000000 0.000000 0.000000 0.000000 0.000000 -0.000000 -1.306900 92.276000 -0.313334 87.781200 -0.483724 3.782710 15.735700 0.000005 -0.000001 78.323900 86.865300 -77.677300 8.984550 -0.406207 -0.000000 -1.618770 -1.321430 1.274230 16.377300 -0.000001 -0.000001 0.237304 -1.181350 1.031110 6.456720 -0.000001 -0.000000 -3.108170 -0.866081 -0.232682 12.994200 -0.242716 4.980390 -83.323000 -12.849800 -62.238400 5.348090 -0.000007 -0.000001 -54.562300 -61.629100 -77.821000 24.328600 0.000019 0.000005 -1.998720 -0.701304 -70.667400 22.291600 -0.000001 0.000005 18.305900 5.647400 -14.769400 12.994500 -0.242716 -4.980390 93.728300 -7.592870 -63.748900 -5.348130 -0.000001 -0.000004 -48.394300 -60.882100 -91.076200 -24.328900 0.000322 -0.000009 0.281717 0.198975 -54.892800 -22.291500 -0.000108 -0.000004 21.558700 5.610630 -11.994600 -2.192480 -6.469440 -0.000000 -169.672000 -18.931600 -2.215760 39.081100 -0.000007 -0.000012 -0.127111 0.323273 21.464900 40.985400 -0.000006 -0.000013 -5.663070 -0.114176 -63.353800 11.754300 -0.000000 0.000003 -0.000132 -0.001306 -16.627300 -2.192510 6.469440 -0.000001 174.856000 23.808200 -179.865000 -39.081100 -0.002282 -0.040193 0.024157 -0.058518 19.598300 -40.985400 0.000008 0.000006 -0.432523 3.218490 -63.364400 -11.754300 -0.000006 -0.000006 -0.003781 -0.049146 -18.572100
0.000000 0.000000 0.000000 0.000000 0.000000 -0.000000 -1.288320 92.268900 -0.345078 87.762500 -0.478505 3.745620 15.735700 0.000005 -0.000001 78.442600 86.825200 -77.812300 8.984550 -0.406207 -0.000000 -1.537690 -1.323010 1.242490 16.377300 -0.000001 -0.000001 0.256049 -1.229350 1.142250 6.456720 -0.000001 -0.000000 -2.977370 -0.891587 -0.190807 12.994200 -0.242716 4.980390 -83.443000 -12.752100 -62.492300 5.348090 -0.000007 -0.000001 -52.796100 -61.376900 -74.236400 24.328600 0.000019 0.000005 -3.008330 -0.884634 -73.619600 22.291600 -0.000001 0.000005 17.630900 5.643690 -14.437600 12.994500 -0.242716 -4.980390 93.631500 -7.398430 -63.762700 -5.348130 -0.000001 -0.000004 -46.981400 -60.580900 -88.168900 -24.328900 0.000322 -0.000009 -0.164123 -0.105895 -56.914100 -22.291500 -0.000108 -0.000004 20.139600 5.594460 -11.008300 -2.192480 -6.469440 -0.000000 -169.690000 -18.970300 -2.346900 39.081100 -0.000007 -0.000012 -0.126290 0.319297 21.580100 40.985400 -0.000006 -0.000013 -5.631740 -0.086785 -63.381300 11.754300 -0.000000 0.000003 -0.000127 -0.001265 -16.625800 -2.192510 6.469440 -0.000001 174.890000 23.827600 -179.944000 -39.081100 -0.002282 -0.040193 0.024835 -0.060321 19.628400 -40.985400 0.000008 0.000006 -0.453277 3.208410 -63.372200 -11.754300 -0.000006 -0.000006 -0.004050 -0.051957 -18.686600
0.000000 0.000000 0.000000 0.000000 0.000000 -0.000000 -1.260070 92.278300 -0.359884 87.777700 -0.478651 3.744980 15.735700 0.000005 -0.000001 78.880300 86.764900 -78.274100 8.984550 -0.406207 -0.000000 -1.410270 -1.296090 1.196110 16.377300 -0.000001 -0.000001 0.226458 -1.301400 1.252750 6.456720 -0.000001 -0.000000 -2.876570 -0.963779 -0.197343 12.994200 -0.242716 4.980390 -83.580100 -12.636500 -62.781300 5.348090 -0.000007 -0.000001 -50.930300 -60.794600 -70.025400 24.328600 0.000019 0.000005 -4.182480 -0.952375 -77.188700 22.291600 -0.000001 0.000005 16.759700 5.638440 -13.993700 12.994500 -0.242716 -4.980390 93.481500 -7.071390 -63.701300 -5.348130 -0.000001 -0.000004 -44.752400 -60.068000 -84.144000 -24.328900 0.000322 -0.000009 -0.593724 -0.346168 -59.686000 -22.291500 -0.000108 -0.000004 19.082700 5.577110 -10.051000 -2.192480 -6.469440 -0.000000 -169.713000 -19.008200 -2.314240 39.081100 -0.000007 -0.000012 -0.127795 0.324267 21.509700 40.985400 -0.000006 -0.000013 -5.605820 -0.033917 -63.344700 11.754300 -0.000000 0.000003 -0.000147 -0.001427 -16.631800 -2.192510 6.469440 -0.000001 174.871000 23.785200 -179.942000 -39.081100 -0.002282 -0.040193 0.024452 -0.059388 19.585700 -40.985400 0.000008 0.000006 -0.445547 3.165070 -63.323500 -11.754300 -0.000006 -0.000006 -0.003814 -0.049489 -18.586100
